<?xml version="1.0" standalone="no"?>
<!DOCTYPE svg PUBLIC "-//W3C//DTD SVG 20010904//EN"
 "http://www.w3.org/TR/2001/REC-SVG-20010904/DTD/svg10.dtd">
<svg version="1.0" xmlns="http://www.w3.org/2000/svg"
 width="1441.000000pt" height="1441.000000pt" viewBox="0 0 1441.000000 1441.000000"
 preserveAspectRatio="xMidYMid meet">
<metadata>
Created by potrace 1.14, written by Peter Selinger 2001-2017
</metadata>
<g transform="translate(0.000000,1441.000000) scale(0.100000,-0.100000)"
fill="#000000" stroke="none">
<path d="M7168 13277 c-23 -10 -98 -99 -158 -187 -8 -12 -20 -28 -25 -34 -6
-6 -32 -41 -58 -78 -26 -36 -54 -73 -62 -82 -8 -8 -15 -17 -15 -20 0 -4 -110
-154 -145 -198 -31 -39 -85 -121 -86 -132 -3 -31 5 -64 23 -94 11 -18 17 -39
14 -48 -3 -8 -2 -12 3 -9 13 7 25 -77 18 -126 -11 -81 -75 -169 -152 -209 -57
-29 -120 -37 -210 -26 -33 5 -58 3 -74 -6 -25 -13 -94 -99 -183 -225 -28 -40
-54 -73 -59 -73 -5 0 -9 -4 -9 -10 0 -18 -122 -175 -133 -172 -7 2 -9 0 -4 -4
4 -4 1 -17 -6 -28 -19 -30 -38 -88 -27 -81 6 4 10 -2 10 -12 1 -47 62 -81 140
-77 62 3 132 23 124 35 -3 5 4 14 15 20 10 7 17 18 14 25 -10 27 86 161 109
152 4 -2 14 6 22 17 9 11 16 16 16 11 0 -5 7 -3 15 4 8 7 15 9 15 4 0 -5 4 -4
8 3 10 16 97 22 142 11 103 -26 189 -103 215 -191 16 -55 19 -80 9 -90 -4 -3
-6 -61 -5 -127 1 -90 -2 -119 -11 -114 -7 5 -8 3 -4 -5 12 -19 -5 -492 -17
-484 -5 3 -7 2 -4 -4 7 -11 8 -35 8 -166 -1 -49 -4 -86 -8 -84 -5 3 -7 -63 -7
-146 1 -84 0 -155 -3 -159 -2 -4 -6 -92 -9 -195 -2 -103 -7 -215 -9 -248 -3
-33 -8 -157 -11 -275 -3 -118 -10 -219 -14 -225 -4 -5 -5 -19 -3 -30 6 -27 6
-17 -2 -215 -10 -267 -12 -295 -26 -292 -9 2 -9 -1 0 -12 7 -9 11 -23 7 -31
-3 -8 -1 -15 5 -15 6 0 8 -4 5 -9 -3 -5 -8 -48 -11 -97 -3 -55 -9 -90 -17 -96
-10 -6 -10 -8 0 -8 6 0 12 -10 12 -23 0 -13 -6 -29 -12 -36 -11 -11 -10 -12 1
-6 12 7 13 -6 7 -81 -4 -49 -9 -177 -12 -284 -4 -171 -10 -275 -14 -275 -1 0
-3 -24 -4 -54 -1 -45 -6 -57 -29 -77 -24 -20 -49 -29 -78 -26 -28 3 -197 34
-209 39 -8 3 -24 7 -35 8 -54 5 -145 29 -145 37 0 5 -4 7 -9 4 -15 -9 -151 26
-144 37 3 6 1 7 -4 4 -13 -8 -74 3 -69 12 2 3 -12 7 -32 8 -19 1 -38 5 -41 10
-3 4 -15 9 -26 11 -11 2 -27 6 -35 9 -8 3 -24 8 -35 10 -11 2 -22 8 -23 13 -2
6 -7 8 -12 5 -13 -8 -100 26 -93 37 3 7 1 8 -6 4 -16 -10 -112 25 -104 37 3 6
1 7 -6 3 -15 -9 -259 89 -281 113 -3 3 -12 7 -20 9 -30 6 -70 25 -70 33 0 5
-7 9 -16 9 -24 0 -214 101 -209 111 3 4 0 11 -6 15 -8 4 -9 3 -5 -4 13 -21 -5
-13 -128 60 -190 112 -377 239 -369 250 3 6 2 8 -4 5 -8 -5 -71 33 -109 68 -7
5 -24 19 -40 30 -33 24 -195 157 -241 199 -18 16 -30 33 -26 39 3 6 1 7 -5 3
-13 -8 -68 42 -64 58 2 6 0 8 -4 3 -8 -8 -15 -1 -164 147 -100 100 -170 173
-170 179 0 2 -18 23 -41 46 -23 25 -38 49 -35 58 4 8 1 11 -5 7 -17 -10 -93
81 -82 99 3 5 1 7 -4 4 -6 -4 -43 37 -82 91 -39 53 -80 108 -91 122 -11 14
-20 31 -20 38 0 6 -4 12 -8 12 -32 0 -403 645 -386 672 4 6 3 8 -3 5 -6 -4
-16 8 -23 26 -7 17 -27 64 -45 102 -17 39 -46 108 -64 155 -18 47 -39 99 -46
115 -7 17 -16 41 -20 55 -3 14 -13 40 -21 58 -8 18 -13 36 -9 41 3 5 1 11 -4
13 -6 1 -11 14 -13 28 -2 14 -6 30 -9 35 -4 6 -12 27 -18 48 -14 42 -28 52
-91 62 -45 8 -82 26 -111 55 -18 18 -53 80 -45 80 3 0 1 12 -4 26 -7 18 -7 23
2 18 7 -5 8 -3 4 5 -18 29 5 81 65 142 l61 63 -7 55 c-4 31 -8 66 -8 79 -1 12
-5 22 -10 22 -4 0 -6 4 -2 9 3 5 1 29 -4 53 -10 44 -20 129 -27 208 -2 25 -4
45 -4 45 -1 0 -4 11 -6 25 -13 70 -115 101 -168 51 -14 -13 -32 -38 -41 -55
-8 -17 -21 -40 -28 -51 -55 -89 -194 -354 -212 -404 -17 -50 -3 -88 53 -147
15 -16 23 -43 27 -101 3 -32 -3 -52 -26 -87 -34 -55 -78 -83 -139 -91 -25 -3
-55 -8 -67 -11 -12 -2 -47 -37 -80 -82 -33 -42 -89 -116 -125 -164 -36 -48
-68 -85 -70 -82 -3 2 -5 -2 -5 -8 0 -15 -141 -229 -157 -240 -6 -4 -8 -8 -3
-8 4 0 -10 -28 -32 -62 -54 -86 -110 -189 -182 -338 -34 -69 -65 -127 -70
-128 -5 -2 -7 -7 -4 -12 7 -11 -41 -111 -49 -103 -4 4 -4 0 0 -10 3 -9 2 -23
-4 -30 -6 -7 -18 -35 -28 -62 -9 -28 -21 -53 -28 -57 -6 -4 -8 -8 -4 -8 6 0
-9 -55 -29 -100 -6 -16 -9 -23 -17 -55 -3 -11 -17 -54 -31 -95 -14 -41 -25
-80 -25 -88 0 -7 -5 -10 -12 -6 -7 4 -8 3 -4 -4 8 -14 -25 -142 -37 -142 -4 0
-6 -4 -3 -9 5 -8 -17 -128 -32 -171 -2 -8 -6 -24 -8 -35 -1 -11 -12 -72 -24
-135 -12 -63 -23 -128 -25 -143 -10 -66 -15 -106 -21 -162 -4 -33 -8 -69 -10
-80 -1 -11 -3 -46 -3 -78 -1 -32 -5 -56 -10 -53 -5 4 -6 -5 -3 -19 4 -13 5
-60 2 -102 -5 -74 -3 -409 3 -463 2 -14 -2 -31 -7 -39 -8 -11 -8 -13 2 -7 10
6 13 -2 11 -31 0 -21 2 -63 6 -93 4 -30 8 -77 9 -105 0 -27 4 -52 7 -55 7 -5
22 -112 23 -167 1 -17 4 -29 9 -26 4 2 8 -12 8 -31 1 -20 2 -39 4 -43 1 -5 5
-21 9 -38 18 -79 27 -123 31 -150 2 -16 21 -88 41 -160 21 -71 38 -142 38
-157 1 -14 3 -25 7 -23 3 2 11 -17 19 -43 7 -26 17 -54 21 -62 4 -8 13 -35 20
-60 7 -25 17 -51 22 -57 5 -7 7 -13 3 -13 -4 0 3 -18 14 -40 11 -22 19 -43 18
-47 -1 -5 4 -19 12 -33 21 -37 40 -92 34 -102 -3 -4 0 -8 6 -8 6 0 8 -4 5 -10
-3 -5 -2 -10 3 -10 4 0 24 -35 42 -77 19 -43 65 -138 103 -212 52 -104 65
-136 55 -144 -9 -6 -8 -7 4 -3 11 3 22 -2 28 -14 6 -11 7 -20 3 -20 -4 0 1 -6
12 -13 10 -8 15 -19 12 -24 -4 -6 0 -14 9 -17 8 -3 13 -10 10 -15 -3 -5 1 -12
10 -15 9 -4 14 -13 10 -22 -3 -8 -2 -12 4 -9 6 3 10 -1 10 -9 0 -9 5 -16 10
-16 6 0 10 -6 10 -13 0 -8 9 -22 20 -32 11 -10 20 -23 20 -28 0 -6 28 -51 62
-100 34 -50 61 -96 61 -103 0 -7 3 -11 7 -9 6 4 75 -83 75 -94 0 -2 15 -20 33
-40 18 -19 30 -41 27 -49 -2 -7 -1 -11 4 -8 11 7 63 -59 54 -68 -4 -3 0 -6 8
-6 8 0 31 -21 51 -48 38 -49 72 -87 194 -215 41 -43 74 -83 74 -88 0 -5 4 -8
8 -7 9 3 63 -48 57 -53 -2 -2 9 -5 23 -6 40 -3 91 16 103 39 6 11 17 17 25 14
8 -3 13 -2 10 3 -6 9 64 68 76 63 5 -1 8 2 8 6 0 13 59 43 72 36 6 -4 8 -3 5
3 -10 16 18 24 32 10 9 -9 11 -8 6 3 -4 12 8 20 49 34 30 10 62 16 71 12 9 -3
14 -2 11 3 -3 5 9 12 27 16 43 10 237 16 250 8 5 -3 24 -7 41 -9 75 -7 126
-21 126 -35 0 -6 4 -7 10 -4 12 8 110 -37 169 -78 44 -30 59 -42 104 -81 12
-10 37 -30 54 -43 18 -14 30 -30 26 -36 -3 -5 -1 -7 4 -4 6 4 30 -11 52 -32
23 -22 45 -40 49 -41 4 -1 28 -21 55 -44 26 -24 47 -42 47 -39 0 2 16 -8 35
-23 19 -14 33 -29 30 -33 -2 -4 2 -8 9 -8 13 0 128 -82 134 -95 2 -5 10 -8 17
-8 7 0 15 -3 17 -8 1 -4 29 -24 60 -45 31 -20 64 -44 72 -53 9 -8 16 -13 16
-10 0 8 114 -66 118 -76 2 -5 10 -8 18 -8 8 0 14 -3 14 -7 0 -5 23 -19 50 -32
28 -14 50 -28 50 -31 0 -3 16 -12 35 -20 19 -8 35 -17 35 -22 0 -4 4 -8 9 -8
20 0 120 -64 114 -73 -3 -6 -1 -7 5 -3 13 8 133 -51 145 -71 5 -7 12 -11 17
-8 12 7 50 -12 68 -34 8 -9 11 -10 7 -3 -5 10 -1 10 19 0 14 -6 26 -16 26 -21
0 -6 3 -8 6 -4 4 3 29 -5 56 -19 37 -19 62 -24 98 -22 26 2 46 6 44 9 -2 4 3
12 12 20 8 7 24 31 35 53 38 77 50 96 60 96 5 0 9 5 9 12 0 23 52 79 67 73 12
-4 13 -2 5 7 -16 20 79 112 98 95 10 -9 11 -9 6 1 -4 7 -2 19 4 28 24 28 150
105 161 98 7 -4 9 -3 6 3 -5 7 60 45 83 48 3 0 15 7 28 14 26 14 57 7 46 -10
-4 -8 -3 -9 4 -5 6 4 9 13 6 20 -6 15 29 31 45 22 5 -4 11 -1 13 5 2 5 23 12
46 13 24 2 46 6 49 10 4 3 17 6 30 6 17 0 22 -4 17 -12 -5 -8 -1 -8 10 1 11
10 40 14 84 13 118 -1 162 -4 162 -11 0 -3 12 -7 28 -8 28 -3 65 -10 70 -13 3
-4 21 -7 38 -9 8 0 13 -4 11 -9 -3 -4 7 -7 22 -8 30 -1 201 -83 201 -96 0 -4
6 -8 13 -8 7 0 27 -13 45 -30 18 -16 42 -35 53 -40 11 -6 16 -16 13 -22 -4 -6
-3 -8 3 -5 13 8 46 -27 36 -38 -5 -4 -3 -5 3 -2 21 12 152 -153 138 -174 -4
-8 -3 -9 4 -5 21 13 132 -240 117 -264 -3 -5 -1 -10 4 -12 18 -6 32 -137 33
-301 1 -89 5 -167 10 -173 5 -7 10 -28 12 -46 2 -19 5 -39 9 -44 12 -21 177
-689 172 -701 -2 -8 -1 -12 3 -9 10 6 35 -92 26 -105 -3 -5 -1 -9 4 -9 13 0
36 -95 27 -110 -3 -5 -2 -10 3 -10 5 0 12 -10 15 -22 7 -29 27 -107 34 -133 3
-11 6 -30 7 -42 0 -13 4 -23 7 -23 6 0 13 -26 25 -95 2 -11 14 -57 27 -102 28
-104 61 -142 117 -138 43 4 78 23 86 48 3 9 9 15 13 12 5 -2 6 7 3 22 -4 19
-2 24 8 18 8 -5 11 -4 6 3 -4 6 9 71 28 144 19 73 37 144 40 158 16 74 62 241
66 237 3 -3 6 13 7 36 2 22 6 43 10 46 8 6 9 10 12 57 0 14 4 23 9 21 4 -3 8
11 9 31 1 20 7 38 13 40 5 2 8 8 5 12 -9 15 46 220 58 213 6 -4 7 -1 3 6 -10
16 24 162 35 155 5 -3 6 1 3 9 -5 13 27 158 43 197 3 8 5 21 4 29 -1 7 2 10 8
6 6 -3 9 0 6 7 -3 7 1 42 8 78 8 36 15 132 15 213 2 159 17 252 57 364 14 37
25 69 25 71 0 2 5 0 12 -4 7 -4 8 -3 4 4 -8 14 23 84 34 77 4 -3 7 3 6 13 0 9
5 16 12 14 8 -1 11 2 7 8 -8 13 29 74 62 100 14 11 22 20 17 20 -4 0 14 22 41
50 26 27 52 47 57 44 5 -3 7 -1 6 4 -4 13 72 73 83 66 5 -3 8 0 7 8 -2 7 5 12
14 12 10 -1 15 2 13 7 -8 11 33 31 47 23 7 -4 8 -3 4 4 -8 14 140 86 161 78 7
-3 13 -2 13 3 0 10 68 30 120 36 22 2 44 6 49 9 8 5 140 9 229 7 24 0 41 -5
38 -9 -3 -5 1 -9 9 -9 8 0 12 5 8 10 -3 5 4 4 14 -2 11 -6 23 -8 26 -4 4 3 10
-2 13 -11 5 -12 9 -14 14 -6 5 8 22 7 65 -5 80 -24 136 -50 127 -60 -4 -5 -2
-5 5 -2 15 9 45 -2 37 -14 -3 -5 1 -6 9 -3 8 3 21 -1 28 -9 8 -7 19 -15 24
-18 6 -2 9 -7 8 -10 -1 -4 5 -6 15 -5 9 0 16 -5 14 -12 -1 -8 2 -11 8 -7 5 3
15 1 22 -4 7 -6 28 -22 46 -37 17 -14 30 -30 27 -35 -4 -5 0 -6 8 -4 15 6 90
-72 82 -86 -4 -5 2 -6 12 -2 10 3 15 3 11 -1 -3 -4 7 -22 23 -38 16 -17 29
-37 29 -44 0 -8 4 -14 9 -14 5 0 13 -9 16 -20 3 -11 12 -26 20 -33 7 -8 15
-23 17 -33 2 -10 18 -35 36 -55 32 -35 36 -37 98 -36 36 0 59 4 52 8 -8 5 -4
11 14 18 14 5 76 34 136 64 61 30 113 52 116 49 3 -3 6 0 6 6 0 7 6 12 14 12
7 0 19 7 26 15 7 9 19 14 27 11 7 -3 13 -1 13 4 0 5 10 14 21 21 17 9 20 8 13
-3 -4 -7 5 -1 20 14 16 15 32 25 37 22 5 -3 9 0 9 6 0 7 7 9 16 6 8 -3 13 -2
10 2 -2 4 19 21 47 37 29 16 52 27 53 24 0 -2 8 3 17 11 39 36 49 41 62 36 8
-3 14 -1 12 3 -1 5 2 11 8 12 5 2 20 14 34 27 14 12 31 20 38 17 8 -2 11 0 8
5 -9 15 23 24 38 11 10 -8 14 -7 14 4 0 8 -4 12 -9 9 -4 -3 -8 -2 -8 3 0 13
100 74 111 68 5 -4 8 -2 7 3 -3 8 85 82 98 82 3 0 12 7 21 15 8 8 19 12 25 9
6 -4 8 -2 5 3 -4 6 6 19 21 29 15 9 82 62 149 116 68 54 126 98 129 98 3 0 15
12 26 26 11 14 26 23 34 20 8 -3 11 0 7 10 -3 7 0 14 6 14 7 0 25 14 42 31 16
17 36 28 44 25 8 -3 12 0 10 7 -3 7 13 25 36 40 34 25 42 27 57 15 15 -12 16
-11 4 4 -14 18 0 34 20 22 6 -4 8 -3 5 3 -7 10 42 38 50 29 3 -3 12 2 20 10 9
8 22 13 30 10 8 -3 11 -1 8 4 -3 6 1 11 9 11 9 1 19 2 24 4 4 1 19 5 35 9 18
6 33 4 42 -4 13 -11 14 -10 10 2 -9 22 14 25 145 23 109 -2 156 -8 190 -22 8
-3 20 -7 25 -7 35 -5 75 -19 75 -27 0 -6 4 -8 9 -4 13 7 62 -16 55 -26 -3 -5
1 -6 8 -4 18 7 154 -88 150 -104 -1 -7 2 -10 8 -6 5 3 10 1 10 -4 0 -6 6 -10
13 -9 6 2 10 -4 9 -12 -2 -8 0 -12 3 -8 4 4 17 1 29 -7 47 -33 68 -22 196 106
66 66 120 123 120 125 0 3 17 23 38 45 20 23 49 54 65 70 15 16 27 33 27 37 0
4 9 14 20 22 11 8 20 20 20 26 0 7 11 21 25 32 13 11 21 22 18 26 -4 4 3 9 15
13 12 3 19 10 16 15 -4 6 -2 13 2 17 5 3 25 26 44 51 19 25 38 47 42 48 5 2 6
7 4 11 -3 4 8 21 23 38 15 17 31 39 34 48 4 9 12 13 18 9 8 -4 9 -3 5 4 -6 11
40 93 57 100 4 2 7 10 7 18 0 8 5 14 10 14 6 0 10 5 10 10 0 6 16 36 35 66 19
30 35 58 35 62 0 4 9 14 19 21 11 8 17 20 14 28 -3 7 0 13 6 13 6 0 11 6 11
13 0 7 8 22 18 33 9 10 17 24 17 29 1 18 38 85 47 85 5 0 6 5 3 10 -3 6 -1 10
6 10 7 0 10 3 7 6 -3 3 14 45 38 93 24 49 48 101 54 115 5 15 14 25 19 22 5
-4 7 4 3 16 -3 13 -1 19 5 15 7 -5 9 0 6 13 -3 11 0 20 6 20 6 0 11 6 11 14 0
18 35 97 41 92 2 -2 5 8 6 22 0 15 6 28 12 30 6 2 9 7 6 12 -4 7 7 41 35 105
12 28 23 58 25 71 8 34 50 151 59 163 7 10 7 13 1 9 -6 -4 -2 22 10 57 11 34
23 61 26 59 3 -2 4 8 1 23 -4 19 -2 24 8 18 9 -5 11 -4 6 3 -9 16 4 83 15 76
5 -3 6 2 3 10 -3 9 -3 24 2 34 4 9 8 25 9 35 2 9 4 20 5 25 1 4 3 12 4 17 1 6
6 33 11 60 10 58 12 64 15 68 1 1 4 22 6 47 3 25 9 47 12 50 4 3 8 25 10 49 1
25 8 52 15 60 10 12 9 13 -2 7 -10 -6 -12 -4 -7 10 15 52 28 171 42 404 7 118
8 454 1 503 -3 15 0 27 7 27 6 0 5 4 -3 9 -13 8 -13 12 0 27 8 10 9 15 3 11
-11 -6 -18 57 -29 233 -2 25 -5 52 -8 60 -3 8 -8 36 -12 61 -3 25 -8 57 -10
70 -2 13 -6 40 -9 59 -5 32 -8 49 -20 105 -25 122 -38 180 -52 235 -9 36 -17
70 -18 75 -1 6 -8 27 -15 48 -7 21 -10 45 -7 53 3 9 1 12 -4 9 -6 -3 -11 2
-12 12 -2 28 -4 36 -17 68 -7 17 -15 44 -18 60 -3 17 -9 35 -13 40 -4 6 -13
28 -19 50 -7 22 -16 49 -21 60 -13 33 -35 90 -35 95 -1 3 -9 22 -18 44 -9 21
-17 40 -17 42 0 6 -83 188 -131 289 -16 33 -28 64 -28 69 0 5 -3 12 -8 15 -5
3 -28 40 -50 81 -76 141 -101 183 -184 310 -100 153 -190 280 -245 348 -11 12
-32 40 -49 63 -67 89 -67 89 -135 100 -72 11 -137 43 -146 71 -3 10 -9 18 -13
18 -15 0 -33 86 -27 124 7 44 23 76 37 76 6 0 7 5 4 10 -3 6 -2 10 2 10 11 0
34 37 43 70 5 18 2 38 -11 65 -11 22 -17 45 -14 53 2 7 1 11 -4 8 -7 -5 -21
14 -25 34 -1 3 -4 10 -8 15 -28 46 -57 105 -51 105 4 0 3 4 -3 8 -12 8 -94
150 -94 162 0 5 -3 10 -7 12 -5 2 -18 21 -30 43 -27 50 -78 87 -112 81 -76
-12 -96 -43 -107 -166 -3 -41 -11 -78 -18 -82 -8 -6 -7 -8 2 -8 7 0 10 -4 7
-10 -3 -5 -8 -29 -11 -52 -2 -24 -6 -53 -9 -65 -12 -51 -19 -111 -19 -155 -1
-45 2 -50 58 -103 32 -31 56 -59 52 -62 -3 -3 -1 -11 4 -18 20 -24 11 -135
-11 -135 -6 0 -8 -4 -5 -9 3 -4 -7 -22 -23 -39 -28 -32 -94 -62 -137 -62 -33
0 -61 -31 -74 -81 -6 -23 -16 -53 -22 -68 -6 -14 -12 -28 -12 -31 -9 -39 -31
-102 -37 -106 -5 -3 -9 -14 -9 -25 0 -10 -4 -27 -9 -37 -14 -26 -34 -76 -37
-88 -10 -53 -217 -487 -227 -479 -4 3 -5 2 -2 -2 6 -7 -73 -155 -89 -165 -6
-4 -8 -8 -4 -8 4 0 -13 -33 -38 -73 -107 -173 -126 -202 -132 -207 -4 -3 -11
-13 -17 -22 -24 -40 -90 -133 -133 -188 -26 -33 -62 -80 -81 -105 -18 -25 -37
-45 -42 -45 -5 0 -9 -5 -9 -10 0 -9 -26 -43 -70 -90 -8 -9 -44 -49 -79 -89
-143 -162 -455 -456 -473 -445 -4 3 -7 0 -6 -7 2 -7 -7 -18 -19 -24 -13 -5
-23 -13 -23 -17 0 -11 -177 -147 -184 -141 -3 4 -6 2 -6 -4 0 -6 -19 -23 -42
-39 -23 -16 -50 -37 -60 -46 -10 -10 -24 -18 -32 -18 -8 0 -16 -4 -18 -9 -10
-27 -422 -276 -439 -265 -7 4 -9 3 -6 -3 3 -5 -7 -17 -24 -27 -16 -9 -29 -14
-29 -9 0 4 -4 3 -8 -3 -13 -19 -192 -105 -204 -98 -6 4 -8 3 -5 -3 8 -12 -20
-26 -34 -17 -5 3 -9 1 -9 -4 0 -10 -53 -36 -66 -32 -4 1 -10 -2 -13 -7 -11
-16 -140 -65 -152 -57 -7 4 -9 3 -6 -3 8 -13 -190 -86 -205 -77 -6 4 -8 3 -5
-3 5 -8 -213 -83 -284 -97 -8 -2 -21 -6 -29 -9 -8 -4 -26 -8 -40 -10 -14 -2
-33 -7 -42 -11 -9 -4 -22 -5 -28 -1 -5 3 -10 1 -10 -5 0 -7 -6 -10 -14 -7 -8
3 -16 2 -18 -3 -2 -5 -21 -11 -43 -14 -22 -3 -68 -12 -101 -21 -34 -8 -79 -16
-101 -18 -22 -2 -44 -6 -49 -9 -5 -3 -24 -9 -43 -13 -27 -6 -32 -4 -26 6 6 11
5 12 -6 2 -25 -24 -78 -15 -111 17 -29 29 -30 33 -26 105 2 40 0 68 -4 62 -5
-7 -8 40 -9 103 0 193 -4 255 -14 262 -7 5 -7 8 0 8 11 0 11 29 2 100 -4 25
-9 140 -13 255 -3 116 -8 213 -10 217 -2 3 2 9 8 11 10 4 10 7 1 14 -8 6 -12
37 -12 88 0 67 -8 277 -15 365 -1 14 3 31 9 39 7 11 7 13 -2 7 -10 -5 -13 16
-13 96 -1 57 -3 146 -6 198 -12 240 -21 484 -20 554 1 42 -2 76 -5 76 -3 0 -4
11 -1 25 2 14 9 22 16 19 6 -3 4 1 -5 8 -14 11 -17 40 -20 158 -2 80 0 151 5
159 6 9 5 12 -2 7 -9 -6 -12 14 -13 104 0 8 1 20 2 25 1 6 -1 30 -4 55 -4 25
-9 132 -12 239 -3 107 -7 196 -9 199 -3 2 -1 15 5 29 6 15 5 22 -1 18 -6 -4
-10 40 -10 117 -1 68 -3 139 -5 158 -5 42 4 82 16 74 5 -3 6 2 3 10 -15 40
121 182 155 161 5 -3 11 0 13 7 2 6 11 12 20 14 8 1 26 5 39 9 20 5 21 4 9 -5
-12 -10 -12 -11 5 -5 23 9 60 9 93 1 37 -8 107 -51 105 -64 -2 -6 3 -9 10 -7
13 6 65 -68 87 -125 8 -19 20 -41 27 -48 7 -8 11 -17 8 -22 -3 -4 4 -6 15 -3
11 3 20 1 20 -3 0 -10 134 -9 165 1 31 10 58 54 58 95 0 27 -10 52 -34 86 -19
27 -37 51 -41 52 -5 2 -8 8 -8 14 0 5 -6 15 -12 22 -27 28 -58 66 -53 66 4 0
-15 26 -40 54 -6 6 -26 33 -45 61 -19 27 -40 56 -47 65 -7 8 -33 43 -59 78
-66 90 -78 96 -166 86 -79 -8 -94 -8 -151 7 -23 6 -35 14 -31 21 4 7 3 8 -4 4
-16 -10 -54 12 -46 26 4 6 3 8 -3 5 -14 -9 -55 32 -47 45 4 6 3 8 -3 5 -14 -8
-47 59 -37 75 4 6 3 8 -4 4 -13 -8 -25 63 -19 114 3 19 5 41 6 48 0 7 5 10 11
7 5 -3 7 0 4 9 -3 8 4 32 15 55 36 69 31 87 -51 203 -13 18 -28 38 -35 45 -6
7 -40 53 -75 101 -55 77 -153 209 -175 237 -5 6 -44 58 -87 117 -91 125 -122
144 -188 115z"/>
<path d="M7990 11590 c0 -5 5 -10 11 -10 5 0 7 5 4 10 -3 6 -8 10 -11 10 -2 0
-4 -4 -4 -10z"/>
<path d="M8035 11590 c-3 -5 -1 -10 4 -10 6 0 11 5 11 10 0 6 -2 10 -4 10 -3
0 -8 -4 -11 -10z"/>
<path d="M6330 11576 c0 -2 7 -7 16 -10 8 -3 12 -2 9 4 -6 10 -25 14 -25 6z"/>
<path d="M6510 11575 c0 -5 5 -17 10 -25 5 -8 10 -10 10 -5 0 6 -5 17 -10 25
-5 8 -10 11 -10 5z"/>
<path d="M6436 11528 c3 -5 10 -6 15 -3 13 9 11 12 -6 12 -8 0 -12 -4 -9 -9z"/>
<path d="M8230 11426 c0 -2 8 -10 18 -17 15 -13 16 -12 3 4 -13 16 -21 21 -21
13z"/>
<path d="M5993 11295 c0 -8 4 -12 9 -9 5 3 6 10 3 15 -9 13 -12 11 -12 -6z"/>
<path d="M7816 10723 c-6 -14 -5 -15 5 -6 7 7 10 15 7 18 -3 3 -9 -2 -12 -12z"/>
<path d="M6510 10409 c0 -5 5 -7 10 -4 6 3 10 8 10 11 0 2 -4 4 -10 4 -5 0
-10 -5 -10 -11z"/>
<path d="M6556 9888 c3 -5 10 -6 15 -3 13 9 11 12 -6 12 -8 0 -12 -4 -9 -9z"/>
<path d="M8550 9690 c0 -5 5 -10 11 -10 5 0 7 5 4 10 -3 6 -8 10 -11 10 -2 0
-4 -4 -4 -10z"/>
<path d="M6390 9611 c0 -6 4 -13 10 -16 6 -3 7 1 4 9 -7 18 -14 21 -14 7z"/>
<path d="M6566 9612 c-3 -5 1 -9 9 -9 8 0 12 4 9 9 -3 4 -7 8 -9 8 -2 0 -6 -4
-9 -8z"/>
<path d="M4676 9243 c-6 -14 -5 -15 5 -6 7 7 10 15 7 18 -3 3 -9 -2 -12 -12z"/>
<path d="M8250 9146 c0 -2 8 -10 18 -17 15 -13 16 -12 3 4 -13 16 -21 21 -21
13z"/>
<path d="M6076 9068 c3 -5 10 -6 15 -3 13 9 11 12 -6 12 -8 0 -12 -4 -9 -9z"/>
<path d="M7859 9078 c-5 -18 -6 -38 -1 -34 7 8 12 36 6 36 -2 0 -4 -1 -5 -2z"/>
<path d="M6553 8945 c0 -8 4 -12 9 -9 5 3 6 10 3 15 -9 13 -12 11 -12 -6z"/>
<path d="M8190 8890 c0 -5 5 -10 10 -10 6 0 10 5 10 10 0 6 -4 10 -10 10 -5 0
-10 -4 -10 -10z"/>
<path d="M8070 8816 c0 -2 7 -7 16 -10 8 -3 12 -2 9 4 -6 10 -25 14 -25 6z"/>
<path d="M8190 8808 c0 -4 4 -8 9 -8 6 0 12 4 15 8 3 5 -1 9 -9 9 -8 0 -15 -4
-15 -9z"/>
<path d="M9507 8809 c7 -7 15 -10 18 -7 3 3 -2 9 -12 12 -14 6 -15 5 -6 -5z"/>
<path d="M6539 8778 c-5 -18 -6 -38 -1 -34 7 8 12 36 6 36 -2 0 -4 -1 -5 -2z"/>
<path d="M7873 8755 c0 -8 4 -12 9 -9 5 3 6 10 3 15 -9 13 -12 11 -12 -6z"/>
<path d="M6075 8701 c-3 -5 -2 -12 3 -15 5 -3 9 1 9 9 0 17 -3 19 -12 6z"/>
<path d="M8309 8693 c-13 -16 -12 -17 4 -4 9 7 17 15 17 17 0 8 -8 3 -21 -13z"/>
<path d="M7876 8683 c-6 -14 -5 -15 5 -6 7 7 10 15 7 18 -3 3 -9 -2 -12 -12z"/>
<path d="M5270 8649 c0 -5 5 -7 10 -4 6 3 10 8 10 11 0 2 -4 4 -10 4 -5 0 -10
-5 -10 -11z"/>
<path d="M8516 8652 c-3 -5 1 -9 9 -9 8 0 12 4 9 9 -3 4 -7 8 -9 8 -2 0 -6 -4
-9 -8z"/>
<path d="M6533 8605 c0 -8 4 -12 9 -9 5 3 6 10 3 15 -9 13 -12 11 -12 -6z"/>
<path d="M8470 8609 c0 -5 5 -7 10 -4 6 3 10 8 10 11 0 2 -4 4 -10 4 -5 0 -10
-5 -10 -11z"/>
<path d="M9110 8591 c0 -6 4 -12 8 -15 5 -3 9 1 9 9 0 8 -4 15 -9 15 -4 0 -8
-4 -8 -9z"/>
<path d="M8710 8586 c0 -2 8 -10 18 -17 15 -13 16 -12 3 4 -13 16 -21 21 -21
13z"/>
<path d="M8436 8563 c-6 -14 -5 -15 5 -6 7 7 10 15 7 18 -3 3 -9 -2 -12 -12z"/>
<path d="M6466 8528 c3 -5 10 -6 15 -3 13 9 11 12 -6 12 -8 0 -12 -4 -9 -9z"/>
<path d="M8590 8530 c0 -5 5 -10 11 -10 5 0 7 5 4 10 -3 6 -8 10 -11 10 -2 0
-4 -4 -4 -10z"/>
<path d="M7875 8501 c-3 -5 -2 -12 3 -15 5 -3 9 1 9 9 0 17 -3 19 -12 6z"/>
<path d="M8629 8493 c-13 -16 -12 -17 4 -4 9 7 17 15 17 17 0 8 -8 3 -21 -13z"/>
<path d="M6395 8490 c3 -5 8 -10 11 -10 2 0 4 5 4 10 0 6 -5 10 -11 10 -5 0
-7 -4 -4 -10z"/>
<path d="M7890 8450 c0 -5 5 -10 11 -10 5 0 7 5 4 10 -3 6 -8 10 -11 10 -2 0
-4 -4 -4 -10z"/>
<path d="M8676 8448 c3 -5 10 -6 15 -3 13 9 11 12 -6 12 -8 0 -12 -4 -9 -9z"/>
<path d="M6235 8410 c-3 -5 -1 -10 4 -10 6 0 11 5 11 10 0 6 -2 10 -4 10 -3 0
-8 -4 -11 -10z"/>
<path d="M7893 8381 c0 -11 5 -18 9 -15 4 3 5 11 1 19 -7 21 -12 19 -10 -4z"/>
<path d="M5794 8339 c-3 -6 -2 -15 3 -20 5 -5 9 -1 9 11 0 23 -2 24 -12 9z"/>
<path d="M8836 8292 c-3 -5 1 -9 9 -9 8 0 12 4 9 9 -3 4 -7 8 -9 8 -2 0 -6 -4
-9 -8z"/>
<path d="M5795 8259 c-4 -6 -5 -12 -2 -15 2 -3 7 2 10 11 7 17 1 20 -8 4z"/>
<path d="M8354 8256 c1 -8 5 -18 8 -22 4 -3 5 1 4 10 -1 8 -5 18 -8 22 -4 3
-5 -1 -4 -10z"/>
<path d="M7890 8229 c0 -5 5 -7 10 -4 6 3 10 8 10 11 0 2 -4 4 -10 4 -5 0 -10
-5 -10 -11z"/>
<path d="M6470 8195 c0 -7 30 -13 34 -7 3 4 -4 9 -15 9 -10 1 -19 0 -19 -2z"/>
<path d="M7890 8190 c0 -5 5 -10 11 -10 5 0 7 5 4 10 -3 6 -8 10 -11 10 -2 0
-4 -4 -4 -10z"/>
<path d="M6474 8152 c4 -3 14 -7 22 -8 9 -1 13 0 10 4 -4 3 -14 7 -22 8 -9 1
-13 0 -10 -4z"/>
<path d="M7890 8149 c0 -5 5 -7 10 -4 6 3 10 8 10 11 0 2 -4 4 -10 4 -5 0 -10
-5 -10 -11z"/>
<path d="M7936 8148 c3 -5 10 -6 15 -3 13 9 11 12 -6 12 -8 0 -12 -4 -9 -9z"/>
<path d="M8830 8130 c0 -5 5 -10 11 -10 5 0 7 5 4 10 -3 6 -8 10 -11 10 -2 0
-4 -4 -4 -10z"/>
<path d="M7890 8109 c0 -5 5 -7 10 -4 6 3 10 8 10 11 0 2 -4 4 -10 4 -5 0 -10
-5 -10 -11z"/>
<path d="M7955 8091 c-3 -5 -2 -12 3 -15 5 -3 9 1 9 9 0 17 -3 19 -12 6z"/>
<path d="M7939 8058 c-5 -18 -6 -38 -1 -34 7 8 12 36 6 36 -2 0 -4 -1 -5 -2z"/>
<path d="M8915 8050 c3 -5 8 -10 11 -10 2 0 4 5 4 10 0 6 -5 10 -11 10 -5 0
-7 -4 -4 -10z"/>
<path d="M5250 8026 c0 -2 8 -10 18 -17 15 -13 16 -12 3 4 -13 16 -21 21 -21
13z"/>
<path d="M5760 8010 c-9 -6 -10 -10 -3 -10 6 0 15 5 18 10 8 12 4 12 -15 0z"/>
<path d="M6455 8010 c3 -5 8 -10 11 -10 2 0 4 5 4 10 0 6 -5 10 -11 10 -5 0
-7 -4 -4 -10z"/>
<path d="M9450 8008 c0 -4 4 -8 9 -8 6 0 12 4 15 8 3 5 -1 9 -9 9 -8 0 -15 -4
-15 -9z"/>
<path d="M6495 7990 c3 -5 8 -10 11 -10 2 0 4 5 4 10 0 6 -5 10 -11 10 -5 0
-7 -4 -4 -10z"/>
<path d="M5466 7968 c3 -5 10 -6 15 -3 13 9 11 12 -6 12 -8 0 -12 -4 -9 -9z"/>
<path d="M5870 7946 c0 -2 8 -10 18 -17 15 -13 16 -12 3 4 -13 16 -21 21 -21
13z"/>
<path d="M7935 7910 c3 -5 8 -10 11 -10 2 0 4 5 4 10 0 6 -5 10 -11 10 -5 0
-7 -4 -4 -10z"/>
<path d="M8993 7895 c0 -8 4 -12 9 -9 5 3 6 10 3 15 -9 13 -12 11 -12 -6z"/>
<path d="M9279 7883 c-13 -16 -12 -17 4 -4 9 7 17 15 17 17 0 8 -8 3 -21 -13z"/>
<path d="M6495 7830 c-3 -5 -1 -10 4 -10 6 0 11 5 11 10 0 6 -2 10 -4 10 -3 0
-8 -4 -11 -10z"/>
<path d="M8796 7817 c3 -10 9 -15 12 -12 3 3 0 11 -7 18 -10 9 -11 8 -5 -6z"/>
<path d="M7933 7801 c0 -11 5 -18 9 -15 4 3 5 11 1 19 -7 21 -12 19 -10 -4z"/>
<path d="M9146 7808 c3 -5 10 -6 15 -3 13 9 11 12 -6 12 -8 0 -12 -4 -9 -9z"/>
<path d="M6495 7790 c-3 -5 -1 -10 4 -10 6 0 11 5 11 10 0 6 -2 10 -4 10 -3 0
-8 -4 -11 -10z"/>
<path d="M6025 7770 c-3 -6 1 -7 9 -4 18 7 21 14 7 14 -6 0 -13 -4 -16 -10z"/>
<path d="M6454 7752 c4 -3 14 -7 22 -8 9 -1 13 0 10 4 -4 3 -14 7 -22 8 -9 1
-13 0 -10 -4z"/>
<path d="M6456 7632 c-3 -5 1 -9 9 -9 8 0 12 4 9 9 -3 4 -7 8 -9 8 -2 0 -6 -4
-9 -8z"/>
<path d="M6420 7610 c-9 -6 -10 -10 -3 -10 6 0 15 5 18 10 8 12 4 12 -15 0z"/>
<path d="M7935 7590 c3 -5 8 -10 11 -10 2 0 4 5 4 10 0 6 -5 10 -11 10 -5 0
-7 -4 -4 -10z"/>
<path d="M6470 7568 c0 -4 4 -8 9 -8 6 0 12 4 15 8 3 5 -1 9 -9 9 -8 0 -15 -4
-15 -9z"/>
<path d="M6410 7536 c0 -2 7 -7 16 -10 8 -3 12 -2 9 4 -6 10 -25 14 -25 6z"/>
<path d="M7950 7515 c0 -7 30 -13 34 -7 3 4 -4 9 -15 9 -10 1 -19 0 -19 -2z"/>
<path d="M6276 7488 c3 -5 10 -6 15 -3 13 9 11 12 -6 12 -8 0 -12 -4 -9 -9z"/>
<path d="M7970 7470 c0 -5 5 -10 11 -10 5 0 7 5 4 10 -3 6 -8 10 -11 10 -2 0
-4 -4 -4 -10z"/>
<path d="M626 6652 c-3 -5 1 -9 9 -9 8 0 12 4 9 9 -3 4 -7 8 -9 8 -2 0 -6 -4
-9 -8z"/>
<path d="M13353 5535 c0 -8 4 -12 9 -9 5 3 6 10 3 15 -9 13 -12 11 -12 -6z"/>
<path d="M2555 4651 c-3 -5 -2 -12 3 -15 5 -3 9 1 9 9 0 17 -3 19 -12 6z"/>
<path d="M2665 4650 c-3 -6 1 -7 9 -4 18 7 21 14 7 14 -6 0 -13 -4 -16 -10z"/>
<path d="M2855 4630 c-3 -6 1 -7 9 -4 18 7 21 14 7 14 -6 0 -13 -4 -16 -10z"/>
<path d="M2267 4529 c7 -7 15 -10 18 -7 3 3 -2 9 -12 12 -14 6 -15 5 -6 -5z"/>
<path d="M3035 4501 c-3 -5 -2 -12 3 -15 5 -3 9 1 9 9 0 17 -3 19 -12 6z"/>
<path d="M5653 4075 c0 -8 4 -12 9 -9 5 3 6 10 3 15 -9 13 -12 11 -12 -6z"/>
<path d="M8635 4069 c-3 -4 2 -6 10 -5 21 3 28 13 10 13 -9 0 -18 -4 -20 -8z"/>
<path d="M10790 4070 c0 -5 5 -10 11 -10 5 0 7 5 4 10 -3 6 -8 10 -11 10 -2 0
-4 -4 -4 -10z"/>
<path d="M8766 4052 c-3 -5 1 -9 9 -9 8 0 12 4 9 9 -3 4 -7 8 -9 8 -2 0 -6 -4
-9 -8z"/>
<path d="M5446 4028 c3 -5 10 -6 15 -3 13 9 11 12 -6 12 -8 0 -12 -4 -9 -9z"/>
<path d="M5510 4029 c0 -5 5 -7 10 -4 6 3 10 8 10 11 0 2 -4 4 -10 4 -5 0 -10
-5 -10 -11z"/>
<path d="M5925 4030 c-3 -6 1 -7 9 -4 18 7 21 14 7 14 -6 0 -13 -4 -16 -10z"/>
<path d="M6076 4003 c-6 -14 -5 -15 5 -6 7 7 10 15 7 18 -3 3 -9 -2 -12 -12z"/>
<path d="M5335 3991 c-3 -5 -2 -12 3 -15 5 -3 9 1 9 9 0 17 -3 19 -12 6z"/>
<path d="M8253 3975 c0 -8 4 -12 9 -9 5 3 6 10 3 15 -9 13 -12 11 -12 -6z"/>
<path d="M6210 3949 c0 -5 5 -7 10 -4 6 3 10 8 10 11 0 2 -4 4 -10 4 -5 0 -10
-5 -10 -11z"/>
<path d="M8435 3931 c-3 -5 -2 -12 3 -15 5 -3 9 1 9 9 0 17 -3 19 -12 6z"/>
<path d="M9070 3930 c0 -5 5 -10 11 -10 5 0 7 5 4 10 -3 6 -8 10 -11 10 -2 0
-4 -4 -4 -10z"/>
<path d="M10605 3930 c-3 -6 1 -7 9 -4 18 7 21 14 7 14 -6 0 -13 -4 -16 -10z"/>
<path d="M6255 3921 c-3 -5 -2 -12 3 -15 5 -3 9 1 9 9 0 17 -3 19 -12 6z"/>
<path d="M8150 3906 c0 -2 8 -10 18 -17 15 -13 16 -12 3 4 -13 16 -21 21 -21
13z"/>
<path d="M6150 3890 c0 -5 5 -10 11 -10 5 0 7 5 4 10 -3 6 -8 10 -11 10 -2 0
-4 -4 -4 -10z"/>
<path d="M9275 3851 c-3 -5 -2 -12 3 -15 5 -3 9 1 9 9 0 17 -3 19 -12 6z"/>
<path d="M6350 3816 c0 -2 7 -7 16 -10 8 -3 12 -2 9 4 -6 10 -25 14 -25 6z"/>
<path d="M10336 3768 c3 -5 10 -6 15 -3 13 9 11 12 -6 12 -8 0 -12 -4 -9 -9z"/>
<path d="M4475 3550 c3 -5 8 -10 11 -10 2 0 4 5 4 10 0 6 -5 10 -11 10 -5 0
-7 -4 -4 -10z"/>
<path d="M4866 3488 c3 -5 10 -6 15 -3 13 9 11 12 -6 12 -8 0 -12 -4 -9 -9z"/>
<path d="M9796 3483 c-6 -14 -5 -15 5 -6 7 7 10 15 7 18 -3 3 -9 -2 -12 -12z"/>
<path d="M6580 3456 c0 -2 8 -10 18 -17 15 -13 16 -12 3 4 -13 16 -21 21 -21
13z"/>
<path d="M7553 2055 c0 -8 4 -12 9 -9 5 3 6 10 3 15 -9 13 -12 11 -12 -6z"/>
</g>
</svg>
